Patient4_TMGait_0pt3_02_left_03_EMG.mot
version=1
nRows=23
nColumns=33
inDegrees=no
endheader
time	1LAddLong	2LGlutMax	3LGlutMed	4LIliopsoas	5LSemiMemb	6LBicFemLong	7LRecFem	8LVastMed	9LVastLat	10LGasMed	11LTibAnt	12lTibPost	13LPeroneusLong	14LSol	15LExtDigLong	16LFlexDigLong	17RAddLong	18RGlutMax	19RGlutMed	20RIliopsoas	21RSemiMemb	22RBicFemLong	23RRecFem	24RVastMed	25RVastLat	26RGasMed	27RTibAnt	28RTibPost	29RPeroneusLong	30RSol	31RExtDigLong	32RFlexDigLong
5.907	-0.024109	-0.11444	0.030823	0.016479	-0.040283	0.077362	0.13412	0.004272	0.10742	-0.005493	0.012817	0.017853	0.001831	0.007629	-0.049438	0.002747	-0.003204	0.1265	-0.034027	-0.11337	-0.047607	0.03952	0.02594	-0.015411	0.021973	-0.017548	0.031433	0.04364	0.20111	-0.032654	0.001221	-0.010681
5.908	-0.006409	-0.14038	0.028687	0.015564	-0.044556	0.043945	0.024872	-0.009766	0.053406	0.019073	0.026855	-0.001984	-0.018158	0.01297	-0.023651	-0.009003	-0.001526	0.1474	-0.041656	0.094604	-0.055084	0.11993	0.037689	-0.025177	0.009918	-0.014648	0.033569	0.037842	0.28931	0.072327	-0.00473	-0.005035
5.909	-0.003815	-0.075378	-0.006409	0.016327	-0.039673	0.036163	0.059204	-0.00473	0.023346	0.020599	0.002594	0.006866	-0.058899	0.022736	0.069733	0.002747	-0.00412	0.15167	-0.042877	0.26932	0.089111	0.40329	0.05127	-0.005188	0.029907	-0.008545	0.018005	0.020142	0.22705	0.082397	-0.003357	-0.009003
5.91	-0.00824	-0.082855	-0.055237	-0.000916	0.058594	0.053864	0.071869	-0.000763	-0.011749	0.001831	-0.045013	0.009918	0.003052	0.013428	0.18219	-0.005341	0.010223	0.12482	-0.021667	0.1831	0.21225	0.53268	0.066071	-0.055389	0.011444	-0.003662	0.019226	0.005646	0.13428	0.19211	-0.001526	-0.019073
5.911	-0.014648	-0.13001	-0.047302	-0.009918	0.073853	0.022888	0.10056	0.001984	-0.027161	0.001678	-0.058594	0.010986	0.037079	0.015869	0.26825	-0.010223	0.014191	0.14008	0.04425	0.058289	0.21164	0.30731	0.09964	-0.084076	0.018005	-0.006409	0.019836	-0.006256	0.079193	0.072937	-0.001373	-0.019073
5.912	-0.041199	-0.14755	-0.075684	0.001068	-0.006561	-0.001984	0.12482	0.000763	-0.039978	0.008392	0.056	0.008087	0.003357	0.018005	0.0354	0.005035	0.001068	0.12405	0.038452	0.099182	0.13611	0.15656	0.041199	-0.035858	0.02655	-0.007935	0.019073	-0.009918	0.055695	-0.015259	-0.00412	-0.018005
5.913	-0.025787	-0.1796	-0.14053	0.000305	-0.06012	0.087585	0.070801	0.003815	0.007782	-0.014496	0.097504	0.003815	0.029144	0.022278	-0.047302	0.006866	-0.009613	0.093842	-0.079803	0.23056	0.090942	0.048828	0.048676	-0.068359	0.026855	-0.007324	0.029755	-0.023346	0.020905	-0.065613	-0.003052	-0.018616
5.914	-0.00351	-0.15808	-0.29511	-0.007019	-0.072174	0.17716	0.077057	-0.003967	0.079803	-0.021057	0.045929	0.010223	0.079041	-0.01358	-0.1442	0.003662	-0.004578	0.091248	-0.15137	0.22415	0.063324	-0.011597	0.005493	0.000305	0.02243	0.000305	0.037689	-0.007019	-0.011749	-0.088959	-0.002594	-0.004272
5.915	0.007629	-0.13214	-0.33997	-0.005646	-0.012665	0.26154	0.079803	0.001831	0.11551	-0.00061	-0.033417	0.00946	0.035553	0.010529	-0.29373	-0.011444	-0.011597	0.11856	-0.047455	0.15411	0.001221	0	0.10483	-0.089417	0.02182	-0.001831	0.05127	-0.011139	-0.049133	-0.071106	-0.003967	0.000305
5.916	0.019379	-0.086823	-0.26886	-0.000153	0.065308	0.3418	0.12665	-0.008087	0.1297	0.009766	-0.018921	0.009003	-0.005035	0.020447	-0.2243	-0.016022	0.002441	0.13321	0.077667	0.048981	-0.039673	0.000763	0.10071	-0.077515	0.023804	-0.00061	0.036774	-0.013428	-0.048828	-0.082397	-0.001068	-0.007477
5.917	0.026855	-0.053253	-0.11841	-0.012817	0.070038	0.38559	0.10819	0.00412	0.034637	0.004425	0.003204	0.00473	-0.002441	0.014954	-0.08667	-0.013275	-0.00061	0.1265	-0.059052	-0.043182	0.035095	0.03067	0.087738	-0.065918	0.023804	0.004883	0.013428	-0.009918	-0.016174	-0.062256	0.002441	-0.013428
5.918	0.009155	-0.011749	-0.13534	-0.016174	0.05127	0.31403	0.066071	0.007324	-0.024109	0.006256	0.006866	0.006409	0.004272	0.057526	-0.052643	-0.005493	-0.007019	0.12863	-0.14603	0.007172	0.041199	-0.006561	0.081329	-0.04364	0.03418	-0.001984	0.015411	-0.006561	-0.002289	-0.050507	-0.001526	-0.003967
5.919	0.010834	0.067291	-0.099182	-0.00824	0.008545	-0.049744	0.031128	0.006866	-0.02121	0.002899	0.016174	0.003815	-0.008545	-0.003662	-0.06424	0.001678	-0.003052	0.11093	-0.03952	-0.006714	0.014801	0.023193	0.084991	-0.02655	0.004272	-0.002747	0.026245	-0.005798	0.00061	-0.077515	-0.001373	-0.00885
5.92	-0.002899	0.11704	0.062561	0.014496	-0.038452	-0.30563	0.011139	0.009918	-0.012207	-0.01236	0.010834	0.014191	-0.002441	-0.02655	-0.039368	-0.000153	0.00351	0.112	0.15396	-0.025482	0.006561	0.07431	0.088196	-0.057373	0.013123	0.005341	0.02594	-0.002289	-0.005798	-0.074768	0.00946	-0.00946
5.921	-0.003357	0.20447	0.17624	0.012207	-0.074768	-0.53894	-0.054626	-0.019836	0.061035	-0.004272	0.012054	0.002289	-0.022278	0.004272	-0.009155	0.00473	0.008698	0.12161	0.13519	-0.094604	-0.011444	0.075226	0.059814	-0.067444	-0.002289	0.000305	0.041199	-0.005035	-0.005798	-0.065765	-0.002899	-0.010834
5.922	0.011444	0.23712	0.16068	0.007324	-0.11902	-0.40451	-0.084991	0.033112	0.16235	0.003815	0.006256	0.000153	-0.025482	0.006714	0.007172	-0.011749	0.007172	0.10056	-0.077209	-0.18616	-0.01358	0.045776	0.070953	-0.032959	0.001678	-0.001373	0.020142	-0.005951	0.021515	-0.019531	0.001221	-0.011292
5.923	-0.002594	0.22354	-0.01297	0.02182	-0.10422	-0.20355	0.051727	-0.000153	0.2063	0.008392	0.035706	0.005951	-0.019531	0.01297	0.033875	-0.003967	0.002289	0.060577	-0.084991	-0.18433	-0.012817	0.016174	0.045013	-0.038147	-0.000763	0.001526	0.018005	0.003357	0.016022	-0.012207	-0.000763	-0.009766
5.924	0.024567	0.15656	-0.014496	0.012512	-0.033569	-0.12299	0.12268	0.005035	0.33691	-0.002289	0.10147	0.004578	-0.028076	-0.013428	0.079346	0.001068	0.00351	0.067444	-0.079193	0.022125	-0.018768	-0.046234	0.027161	-0.058441	0.019531	-0.00061	0.017242	-0.002899	-0.005188	-0.008698	-0.003357	-0.011444
5.925	0.015869	0.10773	0.020752	-0.000916	-0.009003	-0.035858	0.2449	0.006104	0.27939	-0.013275	0.11917	0.008698	-0.03067	-0.012817	-0.025482	0.000305	0.003204	0.02243	-0.082703	0.18707	-0.002441	-0.059204	-0.019684	-0.057373	0.053253	-0.001526	0.029602	0.003662	-0.043182	-0.007172	-0.00412	-0.009003
5.926	0.002747	0.14282	-0.020447	0.002747	-0.021667	-0.007629	0.31555	-0.002136	-0.009613	0.016937	-0.022125	0.00885	-0.03952	-0.008545	0.5928	0.007935	0.011902	0.030518	-0.045929	0.11505	-0.013885	-0.09613	0.057831	-0.031586	0.060425	-0.003815	0.033417	0.000458	-0.02655	-0.044403	-0.002441	-0.013275
5.927	0.009155	0.17761	0.047607	0.008392	0.04425	-0.040436	0.27542	-0.00885	-0.19791	0.041962	-0.1001	0.007019	-0.093994	0.031586	1.1675	0.001984	0.00946	0.028381	0.080872	0.011902	-0.016479	-0.050354	0.048676	-0.050812	0.042114	-0.001068	0.053711	0.006866	0.060272	-0.023193	-0.001678	-0.014648
5.928	0.007324	0.15915	0.028687	0.013275	0.11398	-0.039215	0.21042	-0.009003	-0.23636	0.009308	-0.16739	0.001678	-0.012512	0.054016	-0.00061	-0.00885	0.014191	0.037384	0.1329	-0.024719	-0.021667	-0.017242	0.046692	-0.007629	0.024261	0.00473	0.016479	0.002747	-0.002441	-0.033112	-0.003967	-0.019836
5.929	0.009003	0.19119	0.007019	0.002594	0.086517	-0.024109	-0.005341	-0.002136	-0.10803	-0.038452	-0.18005	-0.001221	0.13107	0.11581	0.033722	0.001373	0.009308	-0.028839	-0.07782	0.033569	-0.003052	0.002594	0.056305	-0.04364	0.035706	0.008087	-0.016174	0.015411	0.25314	-0.052338	0.001984	-0.018311
